<?xml version="1.0" encoding="utf-8"?>
<COLLADA xmlns="http://www.collada.org/2005/11/COLLADASchema" version="1.4.1" xmlns:xsi="http://www.w3.org/2001/XMLSchema-instance">
  <asset>
    <contributor>
      <author>Blender User</author>
      <authoring_tool>Blender 4.5.2 LTS commit date:2025-08-19, commit time:15:00, hash:ab25eae04993</authoring_tool>
    </contributor>
    <created>2025-09-08T19:19:28</created>
    <modified>2025-09-08T19:19:28</modified>
    <unit name="meter" meter="1"/>
    <up_axis>Z_UP</up_axis>
  </asset>
  <library_effects/>
  <library_images/>
  <library_geometries>
    <geometry id="Cube_041-mesh" name="Cube.041">
      <mesh>
        <source id="Cube_041-mesh-positions">
          <float_array id="Cube_041-mesh-positions-array" count="144">-0.9999981 -1.896365 -1 -0.9999981 -1.896365 1 -0.9999981 0.1036348 -1 -0.9999981 0.1036348 1 1.000002 -1.896365 -1 1.000002 -1.896365 1 1.000002 0.1036348 -1 1.000002 0.1036348 1 62.44379 -6.559199 -1 62.44379 -6.559199 0.9999999 65.47926 -4.303287 -1 65.47926 -4.303287 0.9999999 64.429 -6.581275 -1 64.429 -6.581275 0.9999999 67.46446 -4.325363 -1 67.46446 -4.325363 0.9999999 83.45282 -7.738863 -1 83.45282 -7.738863 0.9999999 86.17164 -5.815284 -1 86.17164 -5.815284 0.9999999 85.43651 -7.762035 -1 85.43651 -7.762035 0.9999999 88.15533 -5.838456 -1 88.15533 -5.838456 0.9999999 142.0667 3.154432 -1 142.0667 3.154432 0.9999999 121.5001 2.288202 -1 121.5001 2.288202 0.9999999 141.2259 3.319405 -1 141.2259 3.319405 0.9999999 120.6593 2.453175 -1 120.6593 2.453175 0.9999999 74.38982 7.463371 -1 74.38982 7.463371 0.9999999 55.16893 6.694356 -1 55.16893 6.694356 0.9999999 73.58419 7.629786 -1 73.58419 7.629786 0.9999999 54.36329 6.860771 -1 54.36329 6.860771 0.9999999 160.2932 1.824118 -1 160.2932 1.824118 0.9999999 141.5042 0.9714412 -1 141.5042 0.9714412 0.9999999 159.3999 1.986793 -1 159.3999 1.986793 0.9999999 140.6109 1.134116 -1 140.6109 1.134116 0.9999999</float_array>
          <technique_common>
            <accessor source="#Cube_041-mesh-positions-array" count="48" stride="3">
              <param name="X" type="float"/>
              <param name="Y" type="float"/>
              <param name="Z" type="float"/>
            </accessor>
          </technique_common>
        </source>
        <source id="Cube_041-mesh-normals">
          <float_array id="Cube_041-mesh-normals-array" count="216">-1 0 0 0 1 0 1 0 0 0 -1 0 0 0 -1 0 0 1 -0.596494 0.8026175 0 0.0111196 0.9999381 0 0.596494 -0.8026175 0 -0.0111196 -0.9999381 0 0 0 -1 0 0 1 -0.5775673 0.816343 0 0.01168042 0.9999318 0 0.5775673 -0.816343 0 -0.01168042 -0.9999318 0 0 0 -1 0 0 1 0.04208099 -0.9991142 0 -0.1925488 -0.9812874 0 -0.04208099 0.9991142 0 0.1925468 0.9812878 0 0 0 -1 0 0 1 0.03997731 -0.9992007 0 -0.2022922 -0.9793252 0 -0.03997731 0.9992007 0 0.2022925 0.9793251 0 0 0 -1 0 0 1 0.04533505 -0.9989718 0 -0.1791633 -0.9838193 0 -0.04533505 0.9989718 0 0.1791633 0.9838193 0 0 0 -1 0 0 1 -1 0 0 0 1 0 1 0 0 0 -1 0 0 0 -1 0 0 1 -0.596494 0.8026175 0 0.0111196 0.9999381 0 0.596494 -0.8026175 0 -0.0111196 -0.9999381 0 0 0 -1 0 0 1 -0.5775673 0.816343 0 0.01168042 0.9999318 0 0.5775673 -0.816343 0 -0.01168042 -0.9999318 0 0 0 -1 0 0 1 0.04208099 -0.9991142 0 -0.1925488 -0.9812874 0 -0.04208099 0.9991142 0 0.1925468 0.9812878 0 0 0 -1 0 0 1 0.03997731 -0.9992007 0 -0.2022922 -0.9793252 0 -0.03997731 0.9992007 0 0.2022925 0.9793251 0 0 0 -1 0 0 1 0.04533505 -0.9989718 0 -0.1791633 -0.9838193 0 -0.04533505 0.9989718 0 0.1791633 0.9838193 0 0 0 -1 0 0 1</float_array>
          <technique_common>
            <accessor source="#Cube_041-mesh-normals-array" count="72" stride="3">
              <param name="X" type="float"/>
              <param name="Y" type="float"/>
              <param name="Z" type="float"/>
            </accessor>
          </technique_common>
        </source>
        <source id="Cube_041-mesh-map">
          <float_array id="Cube_041-mesh-map-array" count="432">1.578694 -3.814776 -0.5786941 -1.657388 -0.5786941 -3.814776 1.578694 -1.657388 -0.5786941 0.5 -0.5786941 -1.657388 1.578694 0.5 -0.5786941 2.657388 -0.5786941 0.5 1.578694 2.657388 -0.5786941 4.814776 -0.5786941 2.657388 -0.5786941 0.5 -2.736082 2.657388 -2.736082 0.5 3.736082 0.5 1.578694 2.657388 1.578694 0.5 1.578694 -3.814776 -0.5786941 -1.657388 -0.5786941 -3.814776 1.578694 -1.657388 -0.5786941 0.5 -0.5786941 -1.657388 1.578694 0.5 -0.5786941 2.657388 -0.5786941 0.5 1.578694 2.657388 -0.5786941 4.814776 -0.5786941 2.657388 -2.736082 0.5 -0.5786941 2.657388 -2.736082 2.657388 3.736082 0.5 1.578694 2.657388 1.578694 0.5 1.578694 -3.814776 -0.5786941 -1.657388 -0.5786941 -3.814776 1.578694 -1.657388 -0.5786941 0.5 -0.5786941 -1.657388 1.578694 0.5 -0.5786941 2.657388 -0.5786941 0.5 1.578694 2.657388 -0.5786941 4.814776 -0.5786941 2.657388 -2.736082 0.5 -0.5786941 2.657388 -2.736082 2.657388 3.736082 0.5 1.578694 2.657388 1.578694 0.5 1.578694 -3.814776 -0.5786941 -1.657388 -0.5786941 -3.814776 1.578694 -1.657388 -0.5786941 0.5 -0.5786941 -1.657388 1.578694 0.5 -0.5786941 2.657388 -0.5786941 0.5 1.578694 2.657388 -0.5786941 4.814776 -0.5786941 2.657388 -2.736082 0.5 -0.5786941 2.657388 -2.736082 2.657388 3.736082 0.5 1.578694 2.657388 1.578694 0.5 1.578694 -3.814776 -0.5786941 -1.657388 -0.5786941 -3.814776 1.578694 -1.657388 -0.5786941 0.5 -0.5786941 -1.657388 1.578694 0.5 -0.5786941 2.657388 -0.5786941 0.5 1.578694 2.657388 -0.5786941 4.814776 -0.5786941 2.657388 -2.736082 0.5 -0.5786941 2.657388 -2.736082 2.657388 3.736082 0.5 1.578694 2.657388 1.578694 0.5 1.578694 -3.814776 -0.5786941 -1.657388 -0.5786941 -3.814776 1.578694 -1.657388 -0.5786941 0.5 -0.5786941 -1.657388 1.578694 0.5 -0.5786941 2.657388 -0.5786941 0.5 1.578694 2.657388 -0.5786941 4.814776 -0.5786941 2.657388 -2.736082 0.5 -0.5786941 2.657388 -2.736082 2.657388 3.736082 0.5 1.578694 2.657388 1.578694 0.5 1.578694 -3.814776 1.578694 -1.657388 -0.5786941 -1.657388 1.578694 -1.657388 1.578694 0.5 -0.5786941 0.5 1.578694 0.5 1.578694 2.657388 -0.5786941 2.657388 1.578694 2.657388 1.578694 4.814776 -0.5786941 4.814776 -0.5786941 0.5 -0.5786941 2.657388 -2.736082 2.657388 3.736082 0.5 3.736082 2.657388 1.578694 2.657388 1.578694 -3.814776 1.578694 -1.657388 -0.5786941 -1.657388 1.578694 -1.657388 1.578694 0.5 -0.5786941 0.5 1.578694 0.5 1.578694 2.657388 -0.5786941 2.657388 1.578694 2.657388 1.578694 4.814776 -0.5786941 4.814776 -2.736082 0.5 -0.5786941 0.5 -0.5786941 2.657388 3.736082 0.5 3.736082 2.657388 1.578694 2.657388 1.578694 -3.814776 1.578694 -1.657388 -0.5786941 -1.657388 1.578694 -1.657388 1.578694 0.5 -0.5786941 0.5 1.578694 0.5 1.578694 2.657388 -0.5786941 2.657388 1.578694 2.657388 1.578694 4.814776 -0.5786941 4.814776 -2.736082 0.5 -0.5786941 0.5 -0.5786941 2.657388 3.736082 0.5 3.736082 2.657388 1.578694 2.657388 1.578694 -3.814776 1.578694 -1.657388 -0.5786941 -1.657388 1.578694 -1.657388 1.578694 0.5 -0.5786941 0.5 1.578694 0.5 1.578694 2.657388 -0.5786941 2.657388 1.578694 2.657388 1.578694 4.814776 -0.5786941 4.814776 -2.736082 0.5 -0.5786941 0.5 -0.5786941 2.657388 3.736082 0.5 3.736082 2.657388 1.578694 2.657388 1.578694 -3.814776 1.578694 -1.657388 -0.5786941 -1.657388 1.578694 -1.657388 1.578694 0.5 -0.5786941 0.5 1.578694 0.5 1.578694 2.657388 -0.5786941 2.657388 1.578694 2.657388 1.578694 4.814776 -0.5786941 4.814776 -2.736082 0.5 -0.5786941 0.5 -0.5786941 2.657388 3.736082 0.5 3.736082 2.657388 1.578694 2.657388 1.578694 -3.814776 1.578694 -1.657388 -0.5786941 -1.657388 1.578694 -1.657388 1.578694 0.5 -0.5786941 0.5 1.578694 0.5 1.578694 2.657388 -0.5786941 2.657388 1.578694 2.657388 1.578694 4.814776 -0.5786941 4.814776 -2.736082 0.5 -0.5786941 0.5 -0.5786941 2.657388 3.736082 0.5 3.736082 2.657388 1.578694 2.657388</float_array>
          <technique_common>
            <accessor source="#Cube_041-mesh-map-array" count="216" stride="2">
              <param name="S" type="float"/>
              <param name="T" type="float"/>
            </accessor>
          </technique_common>
        </source>
        <vertices id="Cube_041-mesh-vertices">
          <input semantic="POSITION" source="#Cube_041-mesh-positions"/>
        </vertices>
        <triangles material="Material_006-material" count="72">
          <input semantic="VERTEX" source="#Cube_041-mesh-vertices" offset="0"/>
          <input semantic="NORMAL" source="#Cube_041-mesh-normals" offset="1"/>
          <input semantic="TEXCOORD" source="#Cube_041-mesh-map" offset="2" set="0"/>
          <p>1 0 0 2 0 1 0 0 2 3 1 3 6 1 4 2 1 5 7 2 6 4 2 7 6 2 8 5 3 9 0 3 10 4 3 11 6 4 12 0 4 13 2 4 14 3 5 15 5 5 16 7 5 17 9 6 18 10 6 19 8 6 20 11 7 21 14 7 22 10 7 23 15 8 24 12 8 25 14 8 26 13 9 27 8 9 28 12 9 29 10 10 30 12 10 31 8 10 32 11 11 33 13 11 34 15 11 35 17 12 36 18 12 37 16 12 38 19 13 39 22 13 40 18 13 41 23 14 42 20 14 43 22 14 44 21 15 45 16 15 46 20 15 47 18 16 48 20 16 49 16 16 50 19 17 51 21 17 52 23 17 53 25 18 54 26 18 55 24 18 56 27 19 57 30 19 58 26 19 59 31 20 60 28 20 61 30 20 62 29 21 63 24 21 64 28 21 65 26 22 66 28 22 67 24 22 68 27 23 69 29 23 70 31 23 71 33 24 72 34 24 73 32 24 74 35 25 75 38 25 76 34 25 77 39 26 78 36 26 79 38 26 80 37 27 81 32 27 82 36 27 83 34 28 84 36 28 85 32 28 86 35 29 87 37 29 88 39 29 89 41 30 90 42 30 91 40 30 92 43 31 93 46 31 94 42 31 95 47 32 96 44 32 97 46 32 98 45 33 99 40 33 100 44 33 101 42 34 102 44 34 103 40 34 104 43 35 105 45 35 106 47 35 107 1 36 108 3 36 109 2 36 110 3 37 111 7 37 112 6 37 113 7 38 114 5 38 115 4 38 116 5 39 117 1 39 118 0 39 119 6 40 120 4 40 121 0 40 122 3 41 123 1 41 124 5 41 125 9 42 126 11 42 127 10 42 128 11 43 129 15 43 130 14 43 131 15 44 132 13 44 133 12 44 134 13 45 135 9 45 136 8 45 137 10 46 138 14 46 139 12 46 140 11 47 141 9 47 142 13 47 143 17 48 144 19 48 145 18 48 146 19 49 147 23 49 148 22 49 149 23 50 150 21 50 151 20 50 152 21 51 153 17 51 154 16 51 155 18 52 156 22 52 157 20 52 158 19 53 159 17 53 160 21 53 161 25 54 162 27 54 163 26 54 164 27 55 165 31 55 166 30 55 167 31 56 168 29 56 169 28 56 170 29 57 171 25 57 172 24 57 173 26 58 174 30 58 175 28 58 176 27 59 177 25 59 178 29 59 179 33 60 180 35 60 181 34 60 182 35 61 183 39 61 184 38 61 185 39 62 186 37 62 187 36 62 188 37 63 189 33 63 190 32 63 191 34 64 192 38 64 193 36 64 194 35 65 195 33 65 196 37 65 197 41 66 198 43 66 199 42 66 200 43 67 201 47 67 202 46 67 203 47 68 204 45 68 205 44 68 206 45 69 207 41 69 208 40 69 209 42 70 210 46 70 211 44 70 212 43 71 213 41 71 214 45 71 215</p>
        </triangles>
      </mesh>
    </geometry>
  </library_geometries>
  <library_visual_scenes>
    <visual_scene id="Scene" name="Scene">
      <node id="doors" name="doors" type="NODE">
        <matrix sid="transform">0.03535782 0.5332249 0 -1.8893 -0.04847499 0.388936 0 3.817052 0 0 1.18 1.221846 0 0 0 1</matrix>
        <instance_geometry url="#Cube_041-mesh" name="doors">
          <bind_material>
            <technique_common>
              <instance_material symbol="Material_006-material" target="#Material_006-material"/>
            </technique_common>
          </bind_material>
        </instance_geometry>
      </node>
    </visual_scene>
  </library_visual_scenes>
  <scene>
    <instance_visual_scene url="#Scene"/>
  </scene>
</COLLADA>
